<?xml version="1.0" encoding="utf-8"?><!DOCTYPE svg PUBLIC "-//W3C//DTD SVG 1.1//EN" "http://www.w3.org/Graphics/SVG/1.1/DTD/svg11.dtd"><svg version="1" xmlns="http://www.w3.org/2000/svg" width="800" height="400"><defs id="_ABSTRACT_RENDERER_ID_20"><filter id="_ABSTRACT_RENDERER_ID_21"><feGaussianBlur in="SourceAlpha" stdDeviation="2"></feGaussianBlur><feOffset dx="1" dy="1"></feOffset><feComponentTransfer><feFuncA type="linear" slope="0.1"></feFuncA></feComponentTransfer><feMerge><feMergeNode></feMergeNode><feMergeNode in="SourceGraphic"></feMergeNode></feMerge></filter></defs><rect x="0" y="0" width="800" height="400" stroke="none" stroke-width="0" fill="#ffffff"></rect><g><rect x="484" y="77" width="183" height="181" stroke="none" stroke-width="0" fill-opacity="0" fill="#ffffff"></rect><g column-id="Транспорт"><rect x="484" y="77" width="183" height="13" stroke="none" stroke-width="0" fill-opacity="0" fill="#ffffff"></rect><g><text text-anchor="start" x="502" y="88.05" font-family="Arial" font-size="13" stroke="none" stroke-width="0" fill="#222222">Транспорт</text></g><circle cx="490.5" cy="83.5" r="6.5" stroke="none" stroke-width="0" fill="#4285f4"></circle></g><g column-id="Продукты"><rect x="484" y="98" width="183" height="13" stroke="none" stroke-width="0" fill-opacity="0" fill="#ffffff"></rect><g><text text-anchor="start" x="502" y="109.05" font-family="Arial" font-size="13" stroke="none" stroke-width="0" fill="#222222">Продукты</text></g><circle cx="490.5" cy="104.5" r="6.5" stroke="none" stroke-width="0" fill="#f06292"></circle></g><g column-id="Подарки"><rect x="484" y="119" width="183" height="13" stroke="none" stroke-width="0" fill-opacity="0" fill="#ffffff"></rect><g><text text-anchor="start" x="502" y="130.05" font-family="Arial" font-size="13" stroke="none" stroke-width="0" fill="#222222">Подарки</text></g><circle cx="490.5" cy="125.5" r="6.5" stroke="none" stroke-width="0" fill="#f4b400"></circle></g><g column-id="Здоровье"><rect x="484" y="140" width="183" height="13" stroke="none" stroke-width="0" fill-opacity="0" fill="#ffffff"></rect><g><text text-anchor="start" x="502" y="151.05" font-family="Arial" font-size="13" stroke="none" stroke-width="0" fill="#222222">Здоровье</text></g><circle cx="490.5" cy="146.5" r="6.5" stroke="none" stroke-width="0" fill="#0f9d58"></circle></g><g column-id="Квартира и дом"><rect x="484" y="161" width="183" height="13" stroke="none" stroke-width="0" fill-opacity="0" fill="#ffffff"></rect><g><text text-anchor="start" x="502" y="172.05" font-family="Arial" font-size="13" stroke="none" stroke-width="0" fill="#222222">Квартира и дом</text></g><circle cx="490.5" cy="167.5" r="6.5" stroke="none" stroke-width="0" fill="#ff7043"></circle></g><g column-id="Одежда"><rect x="484" y="182" width="183" height="13" stroke="none" stroke-width="0" fill-opacity="0" fill="#ffffff"></rect><g><text text-anchor="start" x="502" y="193.05" font-family="Arial" font-size="13" stroke="none" stroke-width="0" fill="#222222">Одежда</text></g><circle cx="490.5" cy="188.5" r="6.5" stroke="none" stroke-width="0" fill="#00acc1"></circle></g><g column-id="Вредные привычки"><rect x="484" y="203" width="183" height="13" stroke="none" stroke-width="0" fill-opacity="0" fill="#ffffff"></rect><g><text text-anchor="start" x="502" y="214.05" font-family="Arial" font-size="13" stroke="none" stroke-width="0" fill="#222222">Вредные привычки</text></g><circle cx="490.5" cy="209.5" r="6.5" stroke="none" stroke-width="0" fill="#db4437"></circle></g><g column-id="Животные"><rect x="484" y="224" width="183" height="13" stroke="none" stroke-width="0" fill-opacity="0" fill="#ffffff"></rect><g><text text-anchor="start" x="502" y="235.05" font-family="Arial" font-size="13" stroke="none" stroke-width="0" fill="#222222">Животные</text></g><circle cx="490.5" cy="230.5" r="6.5" stroke="none" stroke-width="0" fill="#9e9d24"></circle></g><g column-id="Дети"><rect x="484" y="245" width="183" height="13" stroke="none" stroke-width="0" fill-opacity="0" fill="#ffffff"></rect><g><text text-anchor="start" x="502" y="256.05" font-family="Arial" font-size="13" stroke="none" stroke-width="0" fill="#222222">Дети</text></g><circle cx="490.5" cy="251.5" r="6.5" stroke="none" stroke-width="0" fill="#ab47bc"></circle></g></g><g><path d="M299,201L299,78A123,123,0,0,1,304.4771923494764,78.12201025420852L299,201A0,0,0,0,0,299,201" stroke="#ffffff" stroke-width="1" fill="#4285f4"></path></g><g><path d="M299,201L304.4771923494764,78.12201025420852A123,123,0,0,1,337.9146261489779,84.31815963190637L299,201A0,0,0,0,0,299,201" stroke="#ffffff" stroke-width="1" fill="#f06292"></path></g><g><path d="M299,201L337.9146261489779,84.31815963190637A123,123,0,0,1,421.77103215772985,193.49842263749386L299,201A0,0,0,0,0,299,201" stroke="#ffffff" stroke-width="1" fill="#f4b400"></path><text text-anchor="start" x="352.8274285134707" y="149.9985839836804" font-family="Arial" font-size="13" stroke="none" stroke-width="0" fill="#ffffff">18.9%</text></g><g><path d="M299,201L421.77103215772985,193.49842263749386A123,123,0,0,1,421.7948818483247,208.10049236715196L299,201A0,0,0,0,0,299,201" stroke="#ffffff" stroke-width="1" fill="#0f9d58"></path></g><g><path d="M299,201L229.86404662968374,99.26888405420172A123,123,0,0,1,299,78L299,201A0,0,0,0,0,299,201" stroke="#ffffff" stroke-width="1" fill="#ab47bc"></path><text text-anchor="start" x="254.98638652861536" y="111.2392772112433" font-family="Arial" font-size="13" stroke="none" stroke-width="0" fill="#ffffff">9.5%</text></g><g><path d="M299,201L188.72877964277265,146.5091020359564A123,123,0,0,1,229.86404662968374,99.26888405420172L299,201A0,0,0,0,0,299,201" stroke="#ffffff" stroke-width="1" fill="#9e9d24"></path><text text-anchor="start" x="212.87720177873965" y="143.61854797287964" font-family="Arial" font-size="13" stroke="none" stroke-width="0" fill="#ffffff">8.2%</text></g><g><path d="M299,201L178.10241008698335,178.35551384499837A123,123,0,0,1,188.72877964277265,146.5091020359564L299,201A0,0,0,0,0,299,201" stroke="#ffffff" stroke-width="1" fill="#db4437"></path></g><g><path d="M299,201L176.80095185472368,215.0140155697232A123,123,0,0,1,178.10241008698335,178.35551384499837L299,201A0,0,0,0,0,299,201" stroke="#ffffff" stroke-width="1" fill="#00acc1"></path><text text-anchor="start" x="189.4425285706808" y="202.19299974566763" font-family="Arial" font-size="13" stroke="none" stroke-width="0" fill="#ffffff">4.8%</text></g><g><path d="M299,201L421.7948818483247,208.10049236715196A123,123,0,0,1,176.80095185472368,215.0140155697232L299,201A0,0,0,0,0,299,201" stroke="#ffffff" stroke-width="1" fill="#ff7043"></path><text text-anchor="start" x="283.3615893397596" y="306.955896506537" font-family="Arial" font-size="13" stroke="none" stroke-width="0" fill="#ffffff">47.3%</text></g><g></g></svg>