<?xml version="1.0" encoding="utf-8"?><!DOCTYPE svg PUBLIC "-//W3C//DTD SVG 1.1//EN" "http://www.w3.org/Graphics/SVG/1.1/DTD/svg11.dtd"><svg version="1" xmlns="http://www.w3.org/2000/svg" width="800" height="800"><defs id="_ABSTRACT_RENDERER_ID_80"><clipPath id="_ABSTRACT_RENDERER_ID_81"><rect x="153" y="153" width="494" height="494"></rect></clipPath></defs><rect x="0" y="0" width="800" height="800" stroke="none" stroke-width="0" fill="#ffffff"></rect><g><rect x="662" y="153" width="123" height="15" stroke="none" stroke-width="0" fill-opacity="0" fill="#ffffff"></rect><g><rect x="662" y="153" width="123" height="15" stroke="none" stroke-width="0" fill-opacity="0" fill="#ffffff"></rect><g><text text-anchor="start" x="698" y="165.75" font-family="Arial" font-size="15" stroke="none" stroke-width="0" fill="#222222">Заголовок</text></g><rect x="662" y="153" width="30" height="15" stroke="none" stroke-width="0" fill="#db4437"></rect></g></g><g><rect x="153" y="153" width="494" height="494" stroke="none" stroke-width="0" fill-opacity="0" fill="#ffffff"></rect><g clip-path="url(#_ABSTRACT_RENDERER_ID_81)"><g><rect x="153" y="646" width="494" height="1" stroke="none" stroke-width="0" fill="#cccccc"></rect><rect x="153" y="601" width="494" height="1" stroke="none" stroke-width="0" fill="#cccccc"></rect><rect x="153" y="556" width="494" height="1" stroke="none" stroke-width="0" fill="#cccccc"></rect><rect x="153" y="512" width="494" height="1" stroke="none" stroke-width="0" fill="#cccccc"></rect><rect x="153" y="467" width="494" height="1" stroke="none" stroke-width="0" fill="#cccccc"></rect><rect x="153" y="422" width="494" height="1" stroke="none" stroke-width="0" fill="#cccccc"></rect><rect x="153" y="377" width="494" height="1" stroke="none" stroke-width="0" fill="#cccccc"></rect><rect x="153" y="332" width="494" height="1" stroke="none" stroke-width="0" fill="#cccccc"></rect><rect x="153" y="287" width="494" height="1" stroke="none" stroke-width="0" fill="#cccccc"></rect><rect x="153" y="243" width="494" height="1" stroke="none" stroke-width="0" fill="#cccccc"></rect><rect x="153" y="198" width="494" height="1" stroke="none" stroke-width="0" fill="#cccccc"></rect><rect x="153" y="153" width="494" height="1" stroke="none" stroke-width="0" fill="#cccccc"></rect><rect x="153" y="624" width="494" height="1" stroke="none" stroke-width="0" fill="#ebebeb"></rect><rect x="153" y="579" width="494" height="1" stroke="none" stroke-width="0" fill="#ebebeb"></rect><rect x="153" y="534" width="494" height="1" stroke="none" stroke-width="0" fill="#ebebeb"></rect><rect x="153" y="489" width="494" height="1" stroke="none" stroke-width="0" fill="#ebebeb"></rect><rect x="153" y="444" width="494" height="1" stroke="none" stroke-width="0" fill="#ebebeb"></rect><rect x="153" y="400" width="494" height="1" stroke="none" stroke-width="0" fill="#ebebeb"></rect><rect x="153" y="355" width="494" height="1" stroke="none" stroke-width="0" fill="#ebebeb"></rect><rect x="153" y="310" width="494" height="1" stroke="none" stroke-width="0" fill="#ebebeb"></rect><rect x="153" y="265" width="494" height="1" stroke="none" stroke-width="0" fill="#ebebeb"></rect><rect x="153" y="220" width="494" height="1" stroke="none" stroke-width="0" fill="#ebebeb"></rect><rect x="153" y="175" width="494" height="1" stroke="none" stroke-width="0" fill="#ebebeb"></rect></g><g><rect x="167" y="602" width="43" height="44" stroke="none" stroke-width="0" fill="#db4437"></rect><rect x="237" y="303" width="44" height="343" stroke="none" stroke-width="0" fill="#db4437"></rect><rect x="308" y="578" width="43" height="68" stroke="none" stroke-width="0" fill="#db4437"></rect><rect x="378" y="643.7158945454546" width="44" height="2.784105454545397" stroke="none" stroke-width="0" fill="#db4437"></rect><rect x="449" y="612" width="43" height="34" stroke="none" stroke-width="0" fill="#db4437"></rect><rect x="519" y="199" width="44" height="447" stroke="none" stroke-width="0" fill="#db4437"></rect><rect x="590" y="644" width="43" height="2" stroke="none" stroke-width="0" fill="#db4437"></rect></g><g><rect x="153" y="646" width="494" height="1" stroke="none" stroke-width="0" fill="#333333"></rect></g></g><g></g><g><g><text text-anchor="middle" x="188.71428571428572" y="668.75" font-family="Arial" font-size="15" stroke="none" stroke-width="0" fill="#222222">14</text></g><g><text text-anchor="middle" x="259.1428571428571" y="668.75" font-family="Arial" font-size="15" stroke="none" stroke-width="0" fill="#222222">15</text></g><g><text text-anchor="middle" x="329.57142857142856" y="668.75" font-family="Arial" font-size="15" stroke="none" stroke-width="0" fill="#222222">16</text></g><g><text text-anchor="middle" x="400" y="668.75" font-family="Arial" font-size="15" stroke="none" stroke-width="0" fill="#222222">17</text></g><g><text text-anchor="middle" x="470.42857142857144" y="668.75" font-family="Arial" font-size="15" stroke="none" stroke-width="0" fill="#222222">18</text></g><g><text text-anchor="middle" x="540.8571428571429" y="668.75" font-family="Arial" font-size="15" stroke="none" stroke-width="0" fill="#222222">19</text></g><g><text text-anchor="middle" x="611.2857142857142" y="668.75" font-family="Arial" font-size="15" stroke="none" stroke-width="0" fill="#222222">20</text></g><g><text text-anchor="end" x="138" y="651.75" font-family="Arial" font-size="15" stroke="none" stroke-width="0" fill="#444444">0</text></g><g><text text-anchor="end" x="138" y="606.9318" font-family="Arial" font-size="15" stroke="none" stroke-width="0" fill="#444444">1,000</text></g><g><text text-anchor="end" x="138" y="562.1136" font-family="Arial" font-size="15" stroke="none" stroke-width="0" fill="#444444">2,000</text></g><g><text text-anchor="end" x="138" y="517.2955" font-family="Arial" font-size="15" stroke="none" stroke-width="0" fill="#444444">3,000</text></g><g><text text-anchor="end" x="138" y="472.4773" font-family="Arial" font-size="15" stroke="none" stroke-width="0" fill="#444444">4,000</text></g><g><text text-anchor="end" x="138" y="427.6591" font-family="Arial" font-size="15" stroke="none" stroke-width="0" fill="#444444">5,000</text></g><g><text text-anchor="end" x="138" y="382.8409" font-family="Arial" font-size="15" stroke="none" stroke-width="0" fill="#444444">6,000</text></g><g><text text-anchor="end" x="138" y="338.0227" font-family="Arial" font-size="15" stroke="none" stroke-width="0" fill="#444444">7,000</text></g><g><text text-anchor="end" x="138" y="293.2045" font-family="Arial" font-size="15" stroke="none" stroke-width="0" fill="#444444">8,000</text></g><g><text text-anchor="end" x="138" y="248.3864" font-family="Arial" font-size="15" stroke="none" stroke-width="0" fill="#444444">9,000</text></g><g><text text-anchor="end" x="138" y="203.5682" font-family="Arial" font-size="15" stroke="none" stroke-width="0" fill="#444444">10,000</text></g><g><text text-anchor="end" x="138" y="158.75" font-family="Arial" font-size="15" stroke="none" stroke-width="0" fill="#444444">11,000</text></g></g></g><g></g></svg>