<svg xmlns="http://www.w3.org/2000/svg" viewBox="0 0 574.85 574.85"><defs><style>.cls-1{fill:#efc83f;}.cls-2{fill:#d5a500;}.cls-3{fill:#ceac38;}.cls-4{fill:#222;}</style></defs><g id="Layer_2" data-name="Layer 2"><circle class="cls-1" cx="287.43" cy="287.43" r="287.43"/><circle class="cls-2" cx="286.75" cy="288.18" r="268.07"/><circle class="cls-3" cx="287.43" cy="287.12" r="264.71"/></g><g id="Layer_3" data-name="Layer 3"><rect class="cls-4" x="82.56" y="270.57" width="402.45" height="36.56"/><rect class="cls-4" x="82.56" y="320.82" width="402.45" height="36.56"/><rect class="cls-4" x="208.5" y="115.83" width="36.96" height="337.85"/><rect class="cls-4" x="208.5" y="115.83" width="147.68" height="36.23"/></g><g id="Layer_4" data-name="Layer 4"><path class="cls-4" d="M564.52,328.35a92.7,92.7,0,0,0-73.58,36.26l91.23,1a52.64,52.64,0,0,1,20.55,15c7.15,8.62,9.52,17.26,11,22.75a74,74,0,0,1,1.91,23.86c-.38,5.09-1.56,18.8-9.05,31.72-11.89,20.49-33.37,27.65-42.53,30.7-31.86,10.62-60.23.36-69.67-3.54a93.45,93.45,0,0,0,46.4,29,90,90,0,0,0,23.78,3.09c31.68-.35,67.09-19.23,83.78-52.11a97.43,97.43,0,0,0,9.81-42.82c0-8.76-.53-43.45-28.3-69.86C604,328.89,572.4,328.36,564.52,328.35Z" transform="translate(-212.57 -212.57)"/></g><g id="Layer_5" data-name="Layer 5"><path class="cls-4" d="M532.06,620.39c-.18-.49-6.4.55-11.95.63-1.91,0-2.47,0-7.23,0-16.8-.08-25.2-.12-25.85-.06-1.27.11-2.54-.05-3.81-.05-1,0-1.39,0-1.56-.25-.47-.76,1.9-3,2.49-3.58,3.57-3.45,5.82-8.06,8.82-12,7.18-9.45,14.19-33.28,17.06-43.32,4.28-15,6.43-22.47,8.53-32.09,4.48-20.54,4.8-30.45,10.75-48A74.79,74.79,0,0,1,540,460.42a72.34,72.34,0,0,1,9.21-10.27c-1.56-8.51-5.65-22-17.16-31.86-10.66-9.16-22.24-10.64-41.81-13.11-13.6-1.72-29.85-2.88-50.78,1.23-13,2.56-61.06,12-91.1,55.51-6.31,9.14-22.31,32.72-22.27,66.46.05,37.53,19.85,63.2,27.3,72.57,5.29,6.65,40.8,49.8,99.36,49.26C499.55,649.77,532.57,621.75,532.06,620.39Zm-64.81-47.34c-6.88,16.74-14.61,35.55-29.53,38.49-5.29,1-9.58-.3-16.65-2.51-3-.94-15.34-5-28.35-17.41-6.53-6.2-27-25.68-29.17-57.59-1.81-26.82,10.4-46.17,14.44-52.36,11.94-18.33,27.36-27.05,36-31.79,21.43-11.79,40.7-13.06,51.56-13.65,17.9-1,40,1.48,41,7.51.29,1.77-1.46,2.64-4.81,8.2-2.84,4.74-4.17,8.43-6.23,14.16-4.32,12-7.24,27.51-9.62,38.78-3.45,16.32-6.75,28.45-9,36.84C472.5,557.59,470.34,565.52,467.25,573.05Z" transform="translate(-212.57 -212.57)"/></g><g id="Layer_6" data-name="Layer 6"><path class="cls-4" d="M557.08,406.76A87,87,0,0,0,529.48,419c-5.32,3.54-17.51,11.85-26.21,27-4.26,7.41-7,17.72-12.86,38.25-6.46,22.72-5.88,27.15-12.19,51.76-7.46,29.06-11.36,43.84-20.12,56-1.76,2.46-4,5.54-6.64,8.78-3.3,8.71-13.5,37.86-1.77,48.26,3,2.68,6.11,2.91,38.91,3.14,17.41.11,26.2.17,30.4,0,14.09-.5,31.8-1.87,43.17-3.83,10.24-1.76,54.28-9.34,82.22-45.27,20.42-26.25,22.48-55.08,23.34-69.9.51-8.84,4.09-90.23-51.18-118.94a99.28,99.28,0,0,0-19.81-7.39A84.92,84.92,0,0,0,557.08,406.76Zm72.73,131.66c-2.23,15.48-5.56,38.58-24.28,57a83.46,83.46,0,0,1-32.62,19.39c-6.61,2.15-13,2.83-25.85,4.2-27.84,3-53.45,1.53-58.64,1.92-1.54.12-3.07,0-4.61,0-1.34,0-1.95.08-2.15-.26-.48-.82,1.95-3.07,2.85-3.93,3.4-3.26,5.68-7.53,8.61-11.22,6.3-7.94,11.16-23.26,12-25.81,6.87-22,12.17-45.2,14.91-58.2.73-3.5,5.41-20.37,11.36-41.62a60.74,60.74,0,0,1,9.47-19.52c4-5.5,9.8-13.44,20.47-17.15,9.81-3.4,18.28-1.58,22.93-.58a53.7,53.7,0,0,1,22.51,11.19c13.56,11.32,17.65,26.2,20.71,37.28C628.61,495.35,633.37,513.68,629.81,538.42Z" transform="translate(-212.57 -212.57)"/></g></svg>